<svg width="20" height="9" viewBox="0 0 20 9" fill="none" xmlns="http://www.w3.org/2000/svg">
<g style="mix-blend-mode:luminosity" clip-path="url(#clip0)">
<path fill-rule="evenodd" clip-rule="evenodd" d="M0.602295 5.53527C0.602295 5.03175 0.991297 4.62358 1.46985 4.62358H4.11193L2.79582 5.99992H8.06028L10.6926 2.78845H16.3957L12.5912 7.1649C12.2695 7.53501 11.6292 7.83504 11.1513 7.83504H1.45962C0.986134 7.83504 0.602295 7.42832 0.602295 6.92336V5.53527Z" fill="#00549D"/>
<path fill-rule="evenodd" clip-rule="evenodd" d="M18.9729 3.31488C18.9729 3.81594 18.5799 4.22212 18.1162 4.22212H15.0246L16.3407 2.84578L10.6375 2.84578L8.44396 6.05725H2.74079L6.57224 1.24914C6.87911 0.864049 7.52202 0.551877 7.99886 0.551877L18.1019 0.551877C18.5829 0.551877 18.9729 0.958679 18.9729 1.45913V3.31488Z" fill="#FFD800"/>
</g>
<defs>
<clipPath id="clip0">
<rect width="18.565" height="7.7037" fill="white" transform="translate(0.532715 0.370361)"/>
</clipPath>
</defs>
</svg>
