<svg width="15" height="13" viewBox="0 0 15 13" fill="none" xmlns="http://www.w3.org/2000/svg">
<g style="mix-blend-mode:luminosity" clip-path="url(#clip0)">
<path d="M0.463623 0.712585V12.77H8.45654C10.2025 12.744 11.5857 12.3126 12.5671 11.482C13.7608 10.4717 14.3661 8.87675 14.3661 6.74129C14.3661 5.72051 14.2069 4.80488 13.8929 4.01988C13.5926 3.26892 13.1487 2.63042 12.5737 2.12208C11.5609 1.22682 10.1394 0.742742 8.45654 0.715239C8.45654 0.715224 5.79224 0.71434 0.463623 0.712585Z" fill="white"/>
<path d="M2.00854 11.1786H4.23634V7.49908H2.00854V11.1786Z" fill="#0A0B09"/>
<path d="M4.40443 5.6594C4.40443 6.35213 3.8398 6.91403 3.14337 6.91403C2.44698 6.91403 1.88232 6.35213 1.88232 5.6594C1.88232 4.96667 2.44698 4.40503 3.14337 4.40503C3.8398 4.40503 4.40443 4.96667 4.40443 5.6594Z" fill="#0A0B09"/>
<path d="M8.3053 1.5134C9.85436 1.5134 11.1454 1.93088 12.0389 2.72071C13.0489 3.61355 13.561 4.96625 13.561 6.74129C13.561 10.2591 11.8419 11.9692 8.3053 11.9692H1.2687V1.5134H8.3053ZM8.45654 0.712585H0.463623V12.77H8.45654V12.7677C10.2025 12.744 11.5857 12.3126 12.5671 11.482C13.7608 10.4717 14.3661 8.87675 14.3661 6.74129C14.3661 5.72051 14.2069 4.80488 13.8929 4.01988C13.5926 3.26892 13.1487 2.63042 12.5737 2.12208C11.5609 1.22682 10.1394 0.742742 8.45654 0.715239V0.712585Z" fill="#0A0B09"/>
<path d="M8.3053 1.5134C9.85436 1.5134 11.1454 1.93088 12.0389 2.72071C13.0489 3.61355 13.561 4.96625 13.561 6.74129C13.561 10.2591 11.8419 11.9692 8.3053 11.9692H1.2687V1.5134H8.3053ZM8.45654 0.712585H0.463623V12.77H8.45654V12.7677C10.2025 12.744 11.5857 12.3126 12.5671 11.482C13.7608 10.4717 14.3661 8.87675 14.3661 6.74129C14.3661 5.72051 14.2069 4.80488 13.8929 4.01988C13.5926 3.26892 13.1487 2.63042 12.5737 2.12208C11.5609 1.22682 10.1394 0.742742 8.45654 0.715239V0.712585Z" fill="#0A0B09"/>
<path d="M8.08508 11.1827H5.25928V2.48792H8.08508H7.97104C10.3277 2.48792 12.8361 3.41304 12.8361 6.84675C12.8361 10.4768 10.3277 11.1827 7.97104 11.1827H8.08508Z" fill="#CD0067"/>
<path d="M5.19631 5.08707V6.4699H5.51404C5.63287 6.4699 5.71864 6.46325 5.77137 6.44996C5.84037 6.43287 5.89762 6.4039 5.94317 6.36308C5.98867 6.32226 6.02584 6.25509 6.05459 6.16158C6.08335 6.06806 6.09773 5.9406 6.09773 5.7792C6.09773 5.6178 6.08335 5.4939 6.05459 5.40749C6.02584 5.32111 5.98559 5.25371 5.93383 5.20529C5.88208 5.15685 5.81641 5.12411 5.73687 5.107C5.67742 5.09373 5.56099 5.08707 5.38753 5.08707H5.19631ZM4.77222 4.73242H5.54806C5.72304 4.73242 5.85641 4.74574 5.94821 4.77237C6.07152 4.80852 6.17717 4.87275 6.26514 4.96505C6.35309 5.05733 6.42001 5.17031 6.46591 5.30397C6.51181 5.43764 6.53477 5.60247 6.53477 5.79844C6.53477 5.97067 6.51323 6.11907 6.47022 6.2437C6.41764 6.39594 6.34258 6.51913 6.24508 6.61333C6.17144 6.6847 6.07201 6.74034 5.94676 6.78029C5.85305 6.8098 5.72782 6.82454 5.57102 6.82454H4.77222V4.73242Z" fill="#FFFFFE"/>
<path d="M7.01465 6.82454V4.73242H8.57163V5.08707H7.43876V5.5504H8.49255V5.90504H7.43876V6.4699H8.61188V6.82454H7.01465Z" fill="#FFFFFE"/>
<path d="M10.2051 5.99513L9.91517 5.22005L9.63108 5.99513H10.2051ZM10.9869 6.82454H10.5249L10.3414 6.34977H9.50111L9.32703 6.82454H8.87646L9.69381 4.73242H10.1458L10.9869 6.82454Z" fill="#FFFFFE"/>
<path d="M11.3416 6.82453V4.74957H11.7657V6.46988H12.8223V6.82453H11.3416Z" fill="#FFFFFE"/>
</g>
<defs>
<clipPath id="clip0">
<rect width="14.4444" height="12.5185" fill="white" transform="translate(0.199219 0.481445)"/>
</clipPath>
</defs>
</svg>
