<svg width="18" height="13" viewBox="0 0 18 13" fill="none" xmlns="http://www.w3.org/2000/svg">
<g style="mix-blend-mode:luminosity" clip-path="url(#clip0)">
<path d="M15.1153 0H2.58392C1.43044 0 0.495361 0.970049 0.495361 2.16667V10.8333C0.495361 12.0299 1.43044 13 2.58392 13H15.1153C16.2687 13 17.2038 12.0299 17.2038 10.8333V2.16667C17.2038 0.970049 16.2687 0 15.1153 0Z" fill="#27337A"/>
<path d="M9.01108 5.91401C9.00572 6.36672 9.38782 6.61937 9.67573 6.76957C9.97147 6.9237 10.0708 7.02252 10.0697 7.16033C10.0674 7.37128 9.83378 7.46436 9.61506 7.46799C9.23347 7.47433 9.01165 7.35768 8.83526 7.26944L8.69782 7.95818C8.87477 8.04552 9.20243 8.12168 9.54222 8.125C10.3398 8.125 10.8616 7.70341 10.8644 7.04973C10.8675 6.22015 9.79285 6.17421 9.80016 5.8034C9.80271 5.69098 9.90291 5.571 10.1225 5.54048C10.2311 5.52506 10.5311 5.51327 10.8712 5.681L11.0047 5.01462C10.8218 4.9433 10.5867 4.875 10.294 4.875C9.54337 4.875 9.01532 5.30233 9.01108 5.91401ZM12.2874 4.93242C12.1417 4.93242 12.019 5.02338 11.9642 5.16301L10.8249 8.07604L11.6219 8.07604L11.7805 7.6067H12.7545L12.8465 8.07604H13.5489L12.9359 4.93242L12.2874 4.93242ZM12.3988 5.78164L12.6288 6.96208H11.9989L12.3988 5.78164ZM8.04476 4.93242L7.41653 8.07604H8.17599L8.80393 4.93242H8.04476ZM6.92124 4.93242L6.13074 7.07209L5.81098 5.25277C5.77344 5.04968 5.62527 4.93242 5.46074 4.93242H4.16845L4.15039 5.02369C4.41568 5.08534 4.71709 5.18477 4.89969 5.29115C5.01145 5.35612 5.04334 5.41294 5.08002 5.56737L5.68567 8.07604H6.48831L7.71879 4.93242H6.92124Z" fill="white"/>
</g>
<defs>
<clipPath id="clip0">
<rect width="16.7085" height="13" fill="white" transform="translate(0.495361)"/>
</clipPath>
</defs>
</svg>
