<svg width="17" height="12" viewBox="0 0 17 12" fill="none" xmlns="http://www.w3.org/2000/svg">
<g style="mix-blend-mode:luminosity" clip-path="url(#clip0)">
<path d="M5.95576 11.2468C8.60173 11.2468 10.7467 8.99741 10.7467 6.22264C10.7467 3.44788 8.60173 1.19849 5.95576 1.19849C3.30978 1.19849 1.16479 3.44788 1.16479 6.22264C1.16479 8.99741 3.30978 11.2468 5.95576 11.2468Z" fill="#E7001A"/>
<path d="M11.7045 11.2464C14.3505 11.2464 16.4955 8.99698 16.4955 6.22221C16.4955 3.44745 14.3505 1.19806 11.7045 1.19806C9.05856 1.19806 6.91357 3.44745 6.91357 6.22221C6.91357 8.99698 9.05856 11.2464 11.7045 11.2464Z" fill="#F49B1C"/>
<path opacity="0.3" fill-rule="evenodd" clip-rule="evenodd" d="M8.82996 2.20251C9.99364 3.11913 10.7463 4.57848 10.7463 6.2222C10.7463 7.86593 9.99364 9.32528 8.82996 10.2419C7.66629 9.32528 6.91357 7.86593 6.91357 6.2222C6.91357 4.57848 7.66629 3.11913 8.82996 2.20251Z" fill="#E7001A"/>
</g>
<defs>
<clipPath id="clip0">
<rect width="15.7802" height="10.5926" fill="white" transform="translate(0.939941 0.925964)"/>
</clipPath>
</defs>
</svg>
