<svg width="16" height="13" viewBox="0 0 16 13" fill="none" xmlns="http://www.w3.org/2000/svg">
<g style="mix-blend-mode:luminosity" clip-path="url(#clip0)">
<path d="M13.4683 0.481445H2.4491C1.39071 0.481445 0.532715 1.3812 0.532715 2.49111V10.0273C0.532715 11.1373 1.39071 12.037 2.4491 12.037H13.4683C14.5267 12.037 15.3847 11.1373 15.3847 10.0273V2.49111C15.3847 1.3812 14.5267 0.481445 13.4683 0.481445Z" fill="#0095FF"/>
<mask id="mask0" mask-type="alpha" maskUnits="userSpaceOnUse" x="2" y="0" width="12" height="13">
<path d="M7.95865 12.037C11.0346 12.037 13.5281 9.4502 13.5281 6.25922C13.5281 3.06824 11.0346 0.481445 7.95865 0.481445C4.88271 0.481445 2.38916 3.06824 2.38916 6.25922C2.38916 9.4502 4.88271 12.037 7.95865 12.037Z" fill="white"/>
</mask>
<g mask="url(#mask0)">
<path d="M7.95865 12.037C11.0346 12.037 13.5281 9.4502 13.5281 6.25922C13.5281 3.06824 11.0346 0.481445 7.95865 0.481445C4.88271 0.481445 2.38916 3.06824 2.38916 6.25922C2.38916 9.4502 4.88271 12.037 7.95865 12.037Z" fill="#0095FF"/>
<path fill-rule="evenodd" clip-rule="evenodd" d="M2.38916 5.19628L2.80568 4.1889H3.52601L3.76239 4.7532V4.1889H4.65783L4.79855 4.59676L4.93497 4.1889H8.95457V4.39395C8.95457 4.39395 9.16584 4.1889 9.51315 4.1889L10.8173 4.19363L11.0496 4.75054V4.1889H11.799L12.0052 4.5088V4.1889H12.7615V5.99859H12.0052L11.8076 5.67769V5.99859H10.7066L10.5959 5.71332H10.2999L10.191 5.99859H9.44436C9.14556 5.99859 8.95457 5.79777 8.95457 5.79777V5.99859H7.82879L7.60536 5.71332V5.99859H3.4193L3.30866 5.71332H3.01363L2.90377 5.99859H2.38916V5.19628ZM2.95309 4.412L2.39129 5.76705H2.75705L2.86071 5.49569H3.46332L3.56644 5.76705H3.94026L3.379 4.412H2.95309ZM3.16094 4.72736L3.34463 5.20152H2.97672L3.16094 4.72736ZM3.97897 4.41177V5.76681H4.30552V4.76836L4.65264 5.76681H4.93902L5.28516 4.76836V5.76681H5.61172V4.41177H5.09612L4.80104 5.28742L4.49873 4.41377L3.97897 4.41177ZM5.83515 5.76681V4.41177H6.90073V4.71487H6.16514V4.94665H6.88356V5.23193H6.16514V5.47262H6.90073V5.76681H5.83515ZM7.08977 5.76705V4.412H7.81645C8.05723 4.412 8.27301 4.56646 8.27301 4.85161C8.27301 5.09537 8.09107 5.25238 7.91475 5.26782L8.34443 5.76705H7.94538L7.55384 5.28565H7.41633V5.76705H7.08977ZM7.78962 4.7151H7.41633V5.00037H7.79445C7.85989 5.00037 7.94431 4.94776 7.94431 4.85774C7.94431 4.78777 7.87915 4.7151 7.78962 4.7151ZM8.73968 5.76681H8.4063V4.41177H8.73968V5.76681ZM9.45833 5.76681H9.53032L9.66779 5.47084H9.58188C9.37391 5.47084 9.22952 5.36063 9.22952 5.09821C9.22952 4.87722 9.35576 4.7327 9.53431 4.7327H9.90839V4.41177H9.54749C9.10773 4.41177 8.89869 4.69795 8.89869 5.09486C8.89869 5.48221 9.1101 5.76681 9.45833 5.76681ZM10.2409 4.412L9.67907 5.76705H10.0448L10.1485 5.49569H10.7511L10.8542 5.76705H11.228L10.6668 4.412H10.2409ZM10.4487 4.72736L10.6324 5.20152H10.2645L10.4487 4.72736ZM11.2662 4.41177V5.76681H11.5927V4.89317L12.1363 5.76681H12.538V4.41177H12.2115V5.26313L11.6814 4.41177H11.2662Z" fill="white"/>
<path fill-rule="evenodd" clip-rule="evenodd" d="M4.54614 6.56024V8.36994H6.38164L6.58256 8.09617L6.78042 8.36994H7.88898V7.95095H8.13822C8.3544 7.95095 8.45442 7.88297 8.45442 7.88297V8.36994H9.18663V8.08466L9.41006 8.36994H13.1224C13.3252 8.36811 13.5005 8.24514 13.5005 8.24514V7.87873C13.4471 8.03102 13.3158 8.13815 13.1023 8.13815H12.4063V7.84397H13.0598C13.1565 7.84397 13.1984 7.78975 13.1984 7.73029C13.1984 7.67333 13.1567 7.61575 13.0598 7.61575H12.7645C12.5078 7.61575 12.3648 7.45349 12.3648 7.2099C12.3648 6.99261 12.4957 6.78312 12.8772 6.78312H13.5005V6.56024H6.79611L6.59138 6.82823L6.3932 6.56024H4.54614ZM13.5005 6.81105L13.3756 7.08799H12.8256C12.7205 7.08799 12.6882 7.14524 12.6882 7.19989C12.6882 7.25603 12.7281 7.318 12.8085 7.318H13.1178C13.3271 7.318 13.4497 7.40803 13.5005 7.54266V6.81105ZM4.76954 6.78312V8.13815H5.83514V7.84397H5.09953V7.60328H5.81796V7.318H5.09953V7.08621H5.83514V6.78312H4.76954ZM11.0565 8.13815H9.99095V6.78312H11.0565V7.08621H10.3209V7.318H11.0359V7.60328H10.3209V7.84397H11.0565V8.13815ZM6.39534 7.46899L5.87649 8.13815H6.282L6.58168 7.72085L6.88884 8.13815H7.30019L6.78042 7.46061L7.3046 6.78312H6.90931L6.59189 7.20711L6.27554 6.78312H5.86414L6.39534 7.46899ZM7.33899 6.78331V8.13839H7.67414V7.71045H8.01787C8.30873 7.71045 8.52919 7.55041 8.52919 7.23908C8.52919 6.98125 8.35626 6.78331 8.06029 6.78331H7.33899ZM7.67414 7.08978H8.03615C8.13009 7.08978 8.19725 7.14953 8.19725 7.24578C8.19725 7.33625 8.13042 7.40182 8.03509 7.40182H7.67414V7.08978ZM8.99754 8.13815H8.67098V6.78312H9.39766C9.63845 6.78312 9.85422 6.93758 9.85422 7.22271C9.85422 7.46649 9.67233 7.6235 9.49597 7.63895L9.92565 8.13815H9.5266L9.13506 7.65677H8.99754V8.13815ZM9.37084 7.08621H8.99754V7.37149H9.37566C9.44111 7.37149 9.52553 7.31886 9.52553 7.22883C9.52553 7.15887 9.46037 7.08621 9.37084 7.08621ZM11.2077 8.13815V7.84397H11.8613C11.958 7.84397 11.9999 7.78975 11.9999 7.73029C11.9999 7.67333 11.9581 7.61575 11.8613 7.61575H11.566C11.3093 7.61575 11.1663 7.45349 11.1663 7.2099C11.1663 6.99261 11.2972 6.78312 11.6787 6.78312H12.3146L12.1771 7.08799H11.6271C11.522 7.08799 11.4896 7.14524 11.4896 7.19989C11.4896 7.25603 11.5296 7.318 11.61 7.318H11.9193C12.2055 7.318 12.3296 7.48637 12.3296 7.70689C12.3296 7.94397 12.1913 8.13815 11.9037 8.13815H11.2077Z" fill="white"/>
</g>
</g>
<defs>
<clipPath id="clip0">
<rect width="14.852" height="11.5556" fill="white" transform="translate(0.532715 0.481445)"/>
</clipPath>
</defs>
</svg>
