<svg width="17" height="13" viewBox="0 0 17 13" fill="none" xmlns="http://www.w3.org/2000/svg">
<g style="mix-blend-mode:luminosity" clip-path="url(#clip0)">
<path d="M14.0441 0.481445H2.30356C1.18802 0.481445 0.283691 1.4457 0.283691 2.63517V10.8463C0.283691 12.0357 1.18802 13 2.30356 13H14.0441C15.1596 13 16.0639 12.0357 16.0639 10.8463V2.63517C16.0639 1.4457 15.1596 0.481445 14.0441 0.481445Z" fill="#0071C0"/>
<path d="M10.2658 5.10809C10.2605 5.1454 10.2545 5.18354 10.2477 5.22273C10.0134 6.54644 9.21203 7.00372 8.18853 7.00372H7.6674C7.54223 7.00372 7.43676 7.10376 7.41725 7.23965L7.15044 9.10214L7.07488 9.63008C7.0622 9.71929 7.12469 9.79974 7.20649 9.79974H8.13077C8.24022 9.79974 8.3332 9.7122 8.35043 9.5934L8.35952 9.54171L8.53355 8.32617L8.54472 8.25948C8.56176 8.14026 8.65492 8.05272 8.76438 8.05272H8.90262C9.79811 8.05272 10.4991 7.65255 10.704 6.49453C10.7896 6.01078 10.7453 5.60685 10.5188 5.32277C10.4503 5.23711 10.3653 5.16604 10.2658 5.10809Z" fill="#99C6E5"/>
<path d="M10.0208 5.00062C9.985 4.98916 9.94807 4.97874 9.9102 4.96936C9.87214 4.96019 9.83313 4.95206 9.79298 4.94497C9.65248 4.91996 9.49852 4.90808 9.33359 4.90808H7.94139C7.90712 4.90808 7.87455 4.91663 7.84539 4.93205C7.78119 4.96602 7.73347 5.03293 7.72192 5.11484L7.42576 7.17949L7.41724 7.23973C7.43674 7.10384 7.54222 7.00379 7.66738 7.00379H8.18851C9.21202 7.00379 10.0134 6.5463 10.2476 5.2228C10.2546 5.18362 10.2605 5.14548 10.2658 5.10817C10.2065 5.07357 10.1424 5.04397 10.0732 5.01875C10.0562 5.0125 10.0386 5.00646 10.0208 5.00062Z" fill="#CCE2F2"/>
<path d="M7.7219 5.1148C7.73345 5.03288 7.78117 4.96598 7.84536 4.93221C7.87472 4.91679 7.90709 4.90825 7.94137 4.90825H9.33357C9.4985 4.90825 9.65245 4.92012 9.79296 4.94513C9.83311 4.95222 9.87211 4.96035 9.91018 4.96953C9.94805 4.9789 9.98498 4.98933 10.0208 5.00078C10.0386 5.00662 10.0562 5.01267 10.0734 5.01871C10.1425 5.04393 10.2067 5.07374 10.266 5.10813C10.3357 4.61895 10.2654 4.28589 10.0251 3.9843C9.7602 3.65228 9.28206 3.51013 8.67023 3.51013H6.894C6.76902 3.51013 6.66241 3.61018 6.6431 3.74628L5.90326 8.90791C5.88868 9.01004 5.96026 9.10215 6.0538 9.10215H7.1504L7.42574 7.17945L7.7219 5.1148Z" fill="white"/>
</g>
<defs>
<clipPath id="clip0">
<rect width="15.7802" height="12.5185" fill="white" transform="translate(0.283691 0.481445)"/>
</clipPath>
</defs>
</svg>
