<svg width="24" height="24" viewBox="0 0 24 24" fill="none" xmlns="http://www.w3.org/2000/svg">
<path d="M17.3649 23.8472C17.5721 24.0474 17.9023 24.0416 18.1025 23.8344C18.2977 23.6323 18.2977 23.3118 18.1025 23.1097L6.99658 12.0028L18.1035 0.896959C18.3107 0.696814 18.3164 0.366642 18.1163 0.159405C17.9161 -0.0477829 17.586 -0.0535049 17.3787 0.146593C17.3744 0.150799 17.3701 0.155052 17.3659 0.159405L5.89076 11.6346C5.68714 11.8382 5.68714 12.1684 5.89076 12.3721L17.3649 23.8472Z" fill="#F44336"/>
<path d="M17.7343 0.00585365C18.0224 0.00531578 18.2563 0.238468 18.2568 0.526537C18.2571 0.665413 18.2019 0.798664 18.1036 0.896757L6.99669 12.0026L18.1036 23.1084C18.3075 23.3124 18.3075 23.6431 18.1036 23.847C17.8996 24.051 17.569 24.051 17.365 23.847L5.88984 12.3719C5.68623 12.1682 5.68623 11.838 5.88984 11.6343L17.365 0.159203C17.4628 0.06106 17.5957 0.00585365 17.7343 0.00585365Z" fill="black"/>
</svg>
