<?xml version="1.0" encoding="utf-8"?>
<!-- Generator: Adobe Illustrator 21.1.0, SVG Export Plug-In . SVG Version: 6.00 Build 0)  -->
<svg version="1.1" id="Layer_1" xmlns="http://www.w3.org/2000/svg" xmlns:xlink="http://www.w3.org/1999/xlink" x="0px" y="0px"
	 viewBox="0 0 140.5 8.7" style="enable-background:new 0 0 140.5 8.7;" xml:space="preserve">
<style type="text/css">
	.st0{fill:#FFFFFF;}
</style>
<title>QB logo1</title>
<path class="st0" d="M7,7.7l1,1L8.6,8l-1-1c0.6-0.8,1-1.7,1-2.7C8.6,1.9,6.7,0,4.4,0S0.1,1.9,0.1,4.2c0,2.4,1.8,4.3,4.2,4.3h0.1
	C5.3,8.6,6.2,8.3,7,7.7 M1.2,4.3c0-1.7,1.4-3.1,3.1-3.1s3.1,1.4,3.1,3.1l0,0c0,0.7-0.2,1.4-0.7,2l-1-1L5,5.9l1,1
	C5.5,7.3,4.9,7.5,4.2,7.5C2.5,7.5,1.1,6,1.1,4.3C1.2,4.3,1.2,4.3,1.2,4.3"/>
<path class="st0" d="M20.3,5.5V0.1h-1.2v5.3c0.1,1.1-0.8,2-1.8,2c-0.1,0-0.2,0-0.3,0c-1,0.1-2-0.6-2.1-1.7c0-0.1,0-0.2,0-0.3V0.1
	h-1.2v5.4c0.1,1.8,1.6,3.2,3.5,3.1C18.9,8.5,20.2,7.2,20.3,5.5"/>
<path class="st0" d="M27,6.1h3.1L31,8.5h1.2l-3-8.3H28l-3,8.3h1.2L27,6.1z M28.2,2.5c0.1-0.4,0.3-1.2,0.3-1.2l0,0
	c0,0,0.2,0.8,0.3,1.2l0.9,2.6h-2.5L28.2,2.5z"/>
<polygon class="st0" points="41.8,7.4 38,7.4 38,0.2 36.9,0.2 36.9,8.5 41.8,8.5 "/>
<rect x="46.7" y="0.2" class="st0" width="1.2" height="8.3"/>
<polygon class="st0" points="52.5,1.2 55.4,1.2 55.4,8.5 56.6,8.5 56.6,1.2 59.4,1.2 59.4,0.2 52.5,0.2 "/>
<path class="st0" d="M68.8,0.1l-1.5,2.7c-0.2,0.3-0.4,0.7-0.5,1l0,0c0,0-0.2-0.6-0.5-1l-1.6-2.7h-1.3l2.8,4.8v3.5h1.2V4.9l2.8-4.8
	C70.2,0.1,68.8,0.1,68.8,0.1z"/>
<path class="st0" d="M84.9,4.1L84.9,4.1c0.6-0.4,1-1.1,1-1.8c0-1.2-1-2.1-2.1-2.1c-0.1,0-0.2,0-0.3,0h-2.9v8.3h3
	c1.3,0.2,2.5-0.8,2.7-2.1c0-0.1,0-0.2,0-0.3C86.3,5.2,85.7,4.4,84.9,4.1 M83.5,1.2c0.6-0.1,1.2,0.4,1.2,1c0,0.1,0,0.1,0,0.2
	c0,0.6-0.4,1.2-1.1,1.2h-0.1h-1.8V1.1L83.5,1.2z M83.6,7.5h-1.9V4.6h1.9c0.7,0,1.4,0.5,1.4,1.3V6c0.1,0.7-0.5,1.4-1.2,1.4
	C83.8,7.5,83.7,7.5,83.6,7.5"/>
<polygon class="st0" points="92.8,0.1 91.6,0.1 91.6,8.5 96.5,8.5 96.5,7.4 92.8,7.4 "/>
<path class="st0" d="M103.4,0.1l-3,8.3h1.2l0.8-2.4h3.1l0.8,2.4h1.2l-3-8.3C104.5,0.1,103.4,0.1,103.4,0.1z M102.8,5.1l0.9-2.6
	c0.1-0.4,0.3-1.2,0.3-1.2l0,0c0,0,0.2,0.8,0.3,1.2l0.9,2.6H102.8z"/>
<path class="st0" d="M117.9,5.5c0,0.5,0.1,1.2,0.1,1.2l0,0c-0.2-0.4-0.4-0.8-0.7-1.2l-3.7-5.4h-1.2v8.3h1.2V3.1
	c0-0.5-0.1-1.2-0.1-1.2l0,0c0.2,0.4,0.4,0.8,0.7,1.2l3.7,5.4h1.1V0.1h-1.2L117.9,5.5L117.9,5.5z"/>
<polygon class="st0" points="128.2,4.1 130.7,0.1 129.4,0.1 127.3,3.6 126.1,3.6 126.1,0.1 124.9,0.1 124.9,8.5 126.1,8.5 
	126.1,4.6 127.3,4.6 129.5,8.5 130.8,8.5 "/>
<path class="st0" d="M136.5,2.3c0.1-0.7,0.7-1.3,1.5-1.2l0,0c0.7,0,1.3,0.3,1.8,0.7l0.5-1c-0.7-0.6-1.5-0.9-2.4-0.8
	c-1.4-0.1-2.6,0.9-2.7,2.2v0.1c0,2.6,4,2.2,4,4c0,0.7-0.6,1.3-1.3,1.2l0,0c-0.8,0-1.6-0.4-2.1-0.9l-0.7,0.9c0.7,0.7,1.7,1.1,2.8,1.1
	c1.3,0.1,2.5-0.8,2.6-2.1c0-0.1,0-0.1,0-0.2C140.6,3.6,136.6,4,136.5,2.3"/>
</svg>
