<svg width="24" height="24" viewBox="0 0 24 24" fill="none" xmlns="http://www.w3.org/2000/svg">
<path d="M6.6351 0.152772C6.42792 -0.0473748 6.0977 -0.0416047 5.89755 0.165584C5.70234 0.367735 5.70234 0.688175 5.89755 0.890278L17.0034 11.9972L5.89652 23.103C5.68933 23.3032 5.68361 23.6334 5.88371 23.8406C6.08386 24.0478 6.41403 24.0535 6.62127 23.8534C6.62562 23.8492 6.62987 23.8449 6.63408 23.8406L18.1092 12.3654C18.3129 12.1618 18.3129 11.8316 18.1092 11.6279L6.6351 0.152772Z" fill="#F44336"/>
<path d="M6.26571 23.9941C5.97764 23.9947 5.7437 23.7615 5.74316 23.4735C5.74292 23.3346 5.79808 23.2013 5.89642 23.1032L17.0033 11.9974L5.89642 0.891553C5.69246 0.687592 5.69246 0.356932 5.89642 0.152971C6.10038 -0.0509902 6.43104 -0.0509902 6.635 0.152971L18.1102 11.6281C18.3138 11.8318 18.3138 12.162 18.1102 12.3657L6.635 23.8408C6.5372 23.9389 6.40429 23.9941 6.26571 23.9941Z" fill="black"/>
</svg>
